<svg width="26" height="28" viewBox="0 0 26 28" fill="none" xmlns="http://www.w3.org/2000/svg">
<path d="M24.6402 8.92578C24.4663 8.75079 24.2594 8.61201 24.0315 8.51747C23.8036 8.42293 23.5592 8.37451 23.3125 8.375H19.5625V7.4375C19.5625 5.69702 18.8711 4.02782 17.6404 2.79711C16.4097 1.5664 14.7405 0.875 13 0.875C11.2595 0.875 9.59032 1.5664 8.35961 2.79711C7.1289 4.02782 6.4375 5.69702 6.4375 7.4375V8.375H2.6875C2.19022 8.375 1.71331 8.57254 1.36167 8.92418C1.01004 9.27581 0.8125 9.75272 0.8125 10.25V22.9062C0.8125 25.1914 2.74609 27.125 5.03125 27.125H20.9688C22.0741 27.1253 23.1357 26.6932 23.9266 25.9209C24.3245 25.5412 24.6415 25.0848 24.8582 24.5793C25.0749 24.0737 25.1869 23.5295 25.1875 22.9795V10.25C25.1882 10.0041 25.1403 9.76043 25.0463 9.53314C24.9524 9.30586 24.8144 9.09943 24.6402 8.92578ZM16.75 18.6875H13.9375V21.5C13.9375 21.7486 13.8387 21.9871 13.6629 22.1629C13.4871 22.3387 13.2486 22.4375 13 22.4375C12.7514 22.4375 12.5129 22.3387 12.3371 22.1629C12.1613 21.9871 12.0625 21.7486 12.0625 21.5V18.6875H9.25C9.00136 18.6875 8.7629 18.5887 8.58709 18.4129C8.41127 18.2371 8.3125 17.9986 8.3125 17.75C8.3125 17.5014 8.41127 17.2629 8.58709 17.0871C8.7629 16.9113 9.00136 16.8125 9.25 16.8125H12.0625V14C12.0625 13.7514 12.1613 13.5129 12.3371 13.3371C12.5129 13.1613 12.7514 13.0625 13 13.0625C13.2486 13.0625 13.4871 13.1613 13.6629 13.3371C13.8387 13.5129 13.9375 13.7514 13.9375 14V16.8125H16.75C16.9986 16.8125 17.2371 16.9113 17.4129 17.0871C17.5887 17.2629 17.6875 17.5014 17.6875 17.75C17.6875 17.9986 17.5887 18.2371 17.4129 18.4129C17.2371 18.5887 16.9986 18.6875 16.75 18.6875ZM17.6875 8.375H8.3125V7.4375C8.3125 6.1943 8.80636 5.00201 9.68544 4.12294C10.5645 3.24386 11.7568 2.75 13 2.75C14.2432 2.75 15.4355 3.24386 16.3146 4.12294C17.1936 5.00201 17.6875 6.1943 17.6875 7.4375V8.375Z" fill="#FF6A00"/>
</svg>
