<svg width="20" height="22" viewBox="0 0 20 22" fill="none" xmlns="http://www.w3.org/2000/svg">
<path d="M19.3117 6.94062C19.1727 6.8006 19.0073 6.68956 18.825 6.61392C18.6428 6.53829 18.4473 6.49957 18.25 6.5H15.25V5.75C15.25 4.35761 14.6969 3.02226 13.7123 2.03769C12.7277 1.05312 11.3924 0.5 10 0.5C8.60761 0.5 7.27226 1.05312 6.28769 2.03769C5.30312 3.02226 4.75 4.35761 4.75 5.75V6.5H1.75C1.35218 6.5 0.970644 6.65804 0.68934 6.93934C0.408035 7.22064 0.25 7.60218 0.25 8V18.125C0.25 19.9531 1.79688 21.5 3.625 21.5H16.375C17.2593 21.5003 18.1086 21.1545 18.7413 20.5367C19.0596 20.233 19.3132 19.8679 19.4865 19.4634C19.6599 19.059 19.7495 18.6236 19.75 18.1836V8C19.7506 7.80321 19.7122 7.60826 19.637 7.42642C19.5617 7.24458 19.4512 7.07946 19.3117 6.94062ZM6.25 5.75C6.25 4.75544 6.64509 3.80161 7.34835 3.09835C8.05161 2.39509 9.00544 2 10 2C10.9946 2 11.9484 2.39509 12.6517 3.09835C13.3549 3.80161 13.75 4.75544 13.75 5.75V6.5H6.25V5.75Z" fill="#FF6A00"/>
</svg>
